HIERARCHY
ROOT Hips
{
  OFFSET 273.282 99.7894 9.62676
  CHANNELS 6 Xposition Yposition Zposition Zrotation Xrotation Yrotation
  JOINT Spine
  {
    OFFSET -0.000355721 21.3001 -0.016921
    CHANNELS 3 Zrotation Xrotation Yrotation
    JOINT LeftArm
    {
      OFFSET 13.5181 21.3012 0
      CHANNELS 3 Zrotation Xrotation Yrotation
      JOINT LeftForeArm
      {
        OFFSET 24.5783 0 0
        CHANNELS 3 Zrotation Xrotation Yrotation
        JOINT LeftHand
        {
          OFFSET 24.5783 0 0
          CHANNELS 3 Zrotation Xrotation Yrotation
          End Site
          {
            OFFSET 7.32568 1.52588e-05 0.0169305
          }
        }
      }
    }
    JOINT Head
    {
      OFFSET 0 27.4458 -0.00489235
      CHANNELS 3 Zrotation Xrotation Yrotation
      End Site
      {
        OFFSET 0 0 0
      }
    }
    JOINT RightArm
    {
      OFFSET -13.5174 21.3012 0
      CHANNELS 3 Zrotation Xrotation Yrotation
      JOINT RightForeArm
      {
        OFFSET -24.5783 0 0
        CHANNELS 3 Zrotation Xrotation Yrotation
        JOINT RightHand
        {
          OFFSET -24.5783 0 0
          CHANNELS 3 Zrotation Xrotation Yrotation
          End Site
          {
            OFFSET -7.32568 1.52588e-05 0.0169305
          }
        }
      }
    }
  }
  JOINT RightUpLeg
  {
    OFFSET -8.44614 -9.41038 0.835684
    CHANNELS 3 Zrotation Xrotation Yrotation
    JOINT RightLeg
    {
      OFFSET 0 -40.9639 0
      CHANNELS 3 Zrotation Xrotation Yrotation
      JOINT RightFoot
      {
        OFFSET 0 -40.9639 0
        CHANNELS 3 Zrotation Xrotation Yrotation
        End Site
        {
          OFFSET 0.50614 -9.67405 14.6709
        }
      }
    }
  }
  JOINT LeftUpLeg
  {
    OFFSET 8.44614 -9.41038 0.835684
    CHANNELS 3 Zrotation Xrotation Yrotation
    JOINT LeftLeg
    {
      OFFSET 0 -40.9639 0
      CHANNELS 3 Zrotation Xrotation Yrotation
      JOINT LeftFoot
      {
        OFFSET 0 -40.9639 0
        CHANNELS 3 Zrotation Xrotation Yrotation
        End Site
        {
          OFFSET -0.50614 -9.67405 14.6709
        }
      }
    }
  }
}
MOTION
Frames:	9
Frame Time:	0.0333333
-218.269 93.243 84.4208 -9.16996 -0.229339 30.1308 1.48792 -3.14451 4.13588 -74.0966 32.3888 15.8639 0.00372017 0.0167323 -103.791 -13.9436 -3.71724 1.67494 -1.02664 7.52578 11.0098 61.9605 30.8638 6.86252 0.000122369 -7.02169e-05 99.3196 -3.33641 -19.4992 3.52052 5.9236 -7.32381 -2.39196 -1.95334e-06 39.8968 -0.00494743 -1.39339 -34.381 -3.17533 3.38179 -25.1645 -1.04576 -0.00132737 74.5104 0.000555924 6.57815 -22.8783 2.84034 
-215.415 95.486 89.1482 -9.23176 -0.0659304 32.4096 1.49382 -3.42895 5.08675 -73.9672 30.1714 19.7705 0.00395983 0.0177202 -104.55 -13.4007 -4.60119 1.41688 -0.753053 8.1985 10.0204 62.0216 31.6515 10.1975 9.48381e-05 0.000176352 103.603 -4.25788 -20.2639 3.54446 5.39489 -2.16275 -4.25784 8.1353e-06 34.7231 0.00404723 0.0189602 -25.656 -1.04083 1.35763 -26.6465 -1.63232 0.00044976 64.0483 0.00440635 7.74801 -23.9045 2.87425 
-212.318 97.5256 93.8603 -8.72778 0.307211 35.241 1.09968 -3.77538 5.54627 -74.6428 28.0356 23.1341 0.00410447 0.0183097 -104.972 -12.2091 -5.55617 0.849435 -0.664623 8.43516 8.98196 62.6419 32.1127 11.5694 7.09818e-05 0.000392403 107.004 -3.07952 -19.4274 3.5184 3.9126 2.09694 -7.81844 -4.1741e-05 30.8824 0.0121509 2.0018 -15.5246 2.219 -1.32401 -26.061 -2.00296 0.000981101 50.3965 0.0102577 6.84076 -24.5499 1.60981 
-209.226 98.7509 98.4675 -8.93175 0.930207 38.0957 0.817755 -4.20817 5.64626 -74.9495 25.9625 25.0334 0.00436805 0.0193119 -105.737 -11.3504 -7.06685 0.0562899 -0.524826 7.54525 7.96946 63.6157 32.6832 12.059 7.12164e-05 0.000476892 109.366 -4.7507 -24.4818 4.56053 3.05485 4.1006 -9.64148 0.00017781 29.8698 0.0174298 5.87798 -6.58212 4.32503 -3.2429 -25.1027 -1.08274 0.000894816 36.4649 0.0176892 5.52752 -24.1784 -0.221105 
-206.01 98.9243 103.095 -8.85072 0.898845 39.8897 0.681912 -4.46842 5.79812 -75.5545 24.1356 26.5231 0.00477847 0.02076 -106.872 -10.1458 -7.60378 0.234641 -1.00245 6.54689 7.96795 65.0319 34.1684 11.3469 0.000108409 0.00039486 110.37 -2.40228 -19.3809 3.28358 2.07502 4.83187 -8.80257 0.000309699 32.6506 0.00883868 11.4544 0.965124 5.82599 -4.60336 -23.0771 1.12002 -8.69833e-05 25.9123 0.0279503 4.50927 -23.8865 -1.50974 
-202.775 97.9095 107.636 -8.88809 0.357516 40.9106 0.764607 -4.44011 5.88845 -75.7345 22.3262 26.6579 0.00511187 0.0218779 -107.728 -10.9645 -6.88277 0.63814 -1.46243 5.29138 8.75389 66.704 35.507 10.138 0.00017482 0.000174402 109.356 -1.85597 -19.1058 3.6183 1.17497 3.753 -6.72266 -0.000162061 39.0385 -0.0154719 16.9467 6.92078 7.09425 -5.15721 -22.1126 2.57877 -3.21641e-05 23.0764 0.0223369 2.54154 -24.1347 -3.76583 
-199.48 95.838 112.238 -7.84575 -0.641744 42.4032 0.354029 -4.02188 5.37015 -76.3382 22.2334 25.9371 0.00512437 0.0219654 -107.722 -10.9827 -6.8485 0.514773 -1.68007 4.80949 9.60657 68.4992 36.1765 7.70725 0.000234384 -8.10358e-05 106.185 -1.51224 -18.7464 3.88591 -0.706284 2.95082 -6.55359 0.00385645 47.384 -0.0300049 18.0167 8.07854 8.46777 -5.95214 -20.5924 -0.155113 -0.000108941 25.6071 -0.0677135 -5.98505 -18.3457 -9.91278 
-196.163 93.0727 116.49 -6.89 -0.575283 44.0555 -0.133544 -3.43955 4.85841 -77.0907 23.5492 22.6987 0.00491133 0.0213335 -107.122 -10.9842 -7.7562 -0.2761 -2.05426 2.59469 9.96452 68.7814 35.7257 5.63587 0.000249088 -0.000221185 100.439 -1.72343 -18.3739 4.40581 -4.32289 -0.288059 -7.91388 -0.000181353 58.4879 -0.0199958 16.9392 1.18659 6.61189 -9.23381 -22.4331 -3.99992 -0.000125686 37.428 0.0450112 6.31703 -22.7137 -6.28697 
-193.274 91.1412 120.403 -6.20558 0.485286 46.1288 -1.07359 -3.34359 4.27585 -76.6043 26.9365 16.1897 0.00438786 0.0195956 -105.624 -10.9291 -6.73938 -0.795694 -2.62977 0.762444 10.1981 70.0726 34.2839 1.54701 0.000219901 -0.000202394 93.5536 -3.16766 -16.2421 3.88093 -8.06883 -6.13496 -9.47231 -3.59776e-05 68.9296 0.00699043 11.2624 -6.96325 1.21592 -12.0955 -23.2348 -6.63056 -5.82856e-05 45.7005 0.0832827 10.9571 -27.539 -3.40622 
